<svg xmlns="http://www.w3.org/2000/svg" viewBox="0 0 516 402" role="img" aria-label="Cache hit ratio (prompt-cache efficiency)" style="font-family:Inter,system-ui,sans-serif;">
<text x="110" y="24" font-size="15" font-weight="600" fill="#0f172a">Cache hit ratio (prompt-cache efficiency)</text>
<text x="110" y="44" font-size="11" fill="#64748b">cache_read / (cache_read + cache_creation). Lower = more re-creation.</text>
<text x="175.0" y="60" text-anchor="middle" font-size="11" font-weight="500" fill="#334155">feature</text>
<text x="305.0" y="60" text-anchor="middle" font-size="11" font-weight="500" fill="#334155">bugfix</text>
<text x="435.0" y="60" text-anchor="middle" font-size="11" font-weight="500" fill="#334155">refactor</text>
<text x="102" y="91.0" text-anchor="end" font-size="12" fill="#0f172a">bmad</text>
<rect x="110" y="68" width="130" height="38" fill="#9eb5f1" stroke="#e2e8f0" />
<text x="175.0" y="91.0" text-anchor="middle" font-size="13" font-weight="500" fill="#0f172a">0.96</text>
<rect x="240" y="68" width="130" height="38" fill="#a1b8f1" stroke="#e2e8f0" />
<text x="305.0" y="91.0" text-anchor="middle" font-size="13" font-weight="500" fill="#0f172a">0.96</text>
<rect x="370" y="68" width="130" height="38" fill="#9eb5f1" stroke="#e2e8f0" />
<text x="435.0" y="91.0" text-anchor="middle" font-size="13" font-weight="500" fill="#0f172a">0.96</text>
<text x="102" y="129.0" text-anchor="end" font-size="12" fill="#0f172a">claudekit</text>
<rect x="110" y="106" width="130" height="38" fill="#dae6fc" stroke="#e2e8f0" />
<text x="175.0" y="129.0" text-anchor="middle" font-size="13" font-weight="500" fill="#0f172a">0.98</text>
<rect x="240" y="106" width="130" height="38" fill="#c5d5f8" stroke="#e2e8f0" />
<text x="305.0" y="129.0" text-anchor="middle" font-size="13" font-weight="500" fill="#0f172a">0.97</text>
<rect x="370" y="106" width="130" height="38" fill="#e6f0ff" stroke="#e2e8f0" />
<text x="435.0" y="129.0" text-anchor="middle" font-size="13" font-weight="500" fill="#0f172a">0.98</text>
<text x="102" y="167.0" text-anchor="end" font-size="12" fill="#0f172a">compound</text>
<rect x="110" y="144" width="130" height="38" fill="#d4e1fb" stroke="#e2e8f0" />
<text x="175.0" y="167.0" text-anchor="middle" font-size="13" font-weight="500" fill="#0f172a">0.98</text>
<rect x="240" y="144" width="130" height="38" fill="#c5d5f8" stroke="#e2e8f0" />
<text x="305.0" y="167.0" text-anchor="middle" font-size="13" font-weight="500" fill="#0f172a">0.97</text>
<rect x="370" y="144" width="130" height="38" fill="#e6f0ff" stroke="#e2e8f0" />
<text x="435.0" y="167.0" text-anchor="middle" font-size="13" font-weight="500" fill="#0f172a">0.98</text>
<text x="102" y="205.0" text-anchor="end" font-size="12" fill="#0f172a">ecc</text>
<rect x="110" y="182" width="130" height="38" fill="#d1dffa" stroke="#e2e8f0" />
<text x="175.0" y="205.0" text-anchor="middle" font-size="13" font-weight="500" fill="#0f172a">0.98</text>
<rect x="240" y="182" width="130" height="38" fill="#89a5ec" stroke="#e2e8f0" />
<text x="305.0" y="205.0" text-anchor="middle" font-size="13" font-weight="500" fill="#0f172a">0.95</text>
<rect x="370" y="182" width="130" height="38" fill="#cedcfa" stroke="#e2e8f0" />
<text x="435.0" y="205.0" text-anchor="middle" font-size="13" font-weight="500" fill="#0f172a">0.97</text>
<text x="102" y="243.0" text-anchor="end" font-size="12" fill="#0f172a">gstack</text>
<rect x="110" y="220" width="130" height="38" fill="#bccef6" stroke="#e2e8f0" />
<text x="175.0" y="243.0" text-anchor="middle" font-size="13" font-weight="500" fill="#0f172a">0.97</text>
<rect x="240" y="220" width="130" height="38" fill="#c2d2f8" stroke="#e2e8f0" />
<text x="305.0" y="243.0" text-anchor="middle" font-size="13" font-weight="500" fill="#0f172a">0.97</text>
<rect x="370" y="220" width="130" height="38" fill="#d7e3fc" stroke="#e2e8f0" />
<text x="435.0" y="243.0" text-anchor="middle" font-size="13" font-weight="500" fill="#0f172a">0.98</text>
<text x="102" y="281.0" text-anchor="end" font-size="12" fill="#0f172a">omc</text>
<rect x="110" y="258" width="130" height="38" fill="#426bde" stroke="#e2e8f0" />
<text x="175.0" y="281.0" text-anchor="middle" font-size="13" font-weight="500" fill="#ffffff">0.93</text>
<rect x="240" y="258" width="130" height="38" fill="#1f4ed8" stroke="#e2e8f0" />
<text x="305.0" y="281.0" text-anchor="middle" font-size="13" font-weight="500" fill="#ffffff">0.92</text>
<rect x="370" y="258" width="130" height="38" fill="#3c66dd" stroke="#e2e8f0" />
<text x="435.0" y="281.0" text-anchor="middle" font-size="13" font-weight="500" fill="#ffffff">0.93</text>
<text x="102" y="319.0" text-anchor="end" font-size="12" fill="#0f172a">pure</text>
<rect x="110" y="296" width="130" height="38" fill="#e6f0ff" stroke="#e2e8f0" />
<text x="175.0" y="319.0" text-anchor="middle" font-size="13" font-weight="500" fill="#0f172a">0.98</text>
<rect x="240" y="296" width="130" height="38" fill="#b0c4f4" stroke="#e2e8f0" />
<text x="305.0" y="319.0" text-anchor="middle" font-size="13" font-weight="500" fill="#0f172a">0.96</text>
<rect x="370" y="296" width="130" height="38" fill="#cbdaf9" stroke="#e2e8f0" />
<text x="435.0" y="319.0" text-anchor="middle" font-size="13" font-weight="500" fill="#0f172a">0.97</text>
<text x="102" y="357.0" text-anchor="end" font-size="12" fill="#0f172a">superpower</text>
<rect x="110" y="334" width="130" height="38" fill="#7896e9" stroke="#e2e8f0" />
<text x="175.0" y="357.0" text-anchor="middle" font-size="13" font-weight="500" fill="#0f172a">0.95</text>
<rect x="240" y="334" width="130" height="38" fill="#cbdaf9" stroke="#e2e8f0" />
<text x="305.0" y="357.0" text-anchor="middle" font-size="13" font-weight="500" fill="#0f172a">0.97</text>
<rect x="370" y="334" width="130" height="38" fill="#89a5ec" stroke="#e2e8f0" />
<text x="435.0" y="357.0" text-anchor="middle" font-size="13" font-weight="500" fill="#0f172a">0.95</text>
</svg>
