<svg xmlns="http://www.w3.org/2000/svg" viewBox="0 0 516 402" role="img" aria-label="Tool-config file reads per trial" style="font-family:Inter,system-ui,sans-serif;">
<text x="110" y="24" font-size="15" font-weight="600" fill="#0f172a">Tool-config file reads per trial</text>
<text x="110" y="44" font-size="11" fill="#64748b">Reads of the setup's own scaffolding (.claude/, _bmad/, .omc/) — the 'setup tax'.</text>
<text x="175.0" y="60" text-anchor="middle" font-size="11" font-weight="500" fill="#334155">feature</text>
<text x="305.0" y="60" text-anchor="middle" font-size="11" font-weight="500" fill="#334155">bugfix</text>
<text x="435.0" y="60" text-anchor="middle" font-size="11" font-weight="500" fill="#334155">refactor</text>
<text x="102" y="91.0" text-anchor="end" font-size="12" fill="#0f172a">bmad</text>
<rect x="110" y="68" width="130" height="38" fill="#a1b7f1" stroke="#e2e8f0" />
<text x="175.0" y="91.0" text-anchor="middle" font-size="13" font-weight="500" fill="#0f172a">6</text>
<rect x="240" y="68" width="130" height="38" fill="#c7d7f8" stroke="#e2e8f0" />
<text x="305.0" y="91.0" text-anchor="middle" font-size="13" font-weight="500" fill="#0f172a">2.7</text>
<rect x="370" y="68" width="130" height="38" fill="#b0c4f4" stroke="#e2e8f0" />
<text x="435.0" y="91.0" text-anchor="middle" font-size="13" font-weight="500" fill="#0f172a">4.7</text>
<text x="102" y="129.0" text-anchor="end" font-size="12" fill="#0f172a">claudekit</text>
<rect x="110" y="106" width="130" height="38" fill="#e6f0ff" stroke="#e2e8f0" />
<text x="175.0" y="129.0" text-anchor="middle" font-size="13" font-weight="500" fill="#0f172a">0</text>
<rect x="240" y="106" width="130" height="38" fill="#e6f0ff" stroke="#e2e8f0" />
<text x="305.0" y="129.0" text-anchor="middle" font-size="13" font-weight="500" fill="#0f172a">0</text>
<rect x="370" y="106" width="130" height="38" fill="#e6f0ff" stroke="#e2e8f0" />
<text x="435.0" y="129.0" text-anchor="middle" font-size="13" font-weight="500" fill="#0f172a">0</text>
<text x="102" y="167.0" text-anchor="end" font-size="12" fill="#0f172a">compound</text>
<rect x="110" y="144" width="130" height="38" fill="#e6f0ff" stroke="#e2e8f0" />
<text x="175.0" y="167.0" text-anchor="middle" font-size="13" font-weight="500" fill="#0f172a">0</text>
<rect x="240" y="144" width="130" height="38" fill="#e6f0ff" stroke="#e2e8f0" />
<text x="305.0" y="167.0" text-anchor="middle" font-size="13" font-weight="500" fill="#0f172a">0</text>
<rect x="370" y="144" width="130" height="38" fill="#e6f0ff" stroke="#e2e8f0" />
<text x="435.0" y="167.0" text-anchor="middle" font-size="13" font-weight="500" fill="#0f172a">0</text>
<text x="102" y="205.0" text-anchor="end" font-size="12" fill="#0f172a">ecc</text>
<rect x="110" y="182" width="130" height="38" fill="#e6f0ff" stroke="#e2e8f0" />
<text x="175.0" y="205.0" text-anchor="middle" font-size="13" font-weight="500" fill="#0f172a">0</text>
<rect x="240" y="182" width="130" height="38" fill="#e6f0ff" stroke="#e2e8f0" />
<text x="305.0" y="205.0" text-anchor="middle" font-size="13" font-weight="500" fill="#0f172a">0</text>
<rect x="370" y="182" width="130" height="38" fill="#e6f0ff" stroke="#e2e8f0" />
<text x="435.0" y="205.0" text-anchor="middle" font-size="13" font-weight="500" fill="#0f172a">0</text>
<text x="102" y="243.0" text-anchor="end" font-size="12" fill="#0f172a">gstack</text>
<rect x="110" y="220" width="130" height="38" fill="#e6f0ff" stroke="#e2e8f0" />
<text x="175.0" y="243.0" text-anchor="middle" font-size="13" font-weight="500" fill="#0f172a">0</text>
<rect x="240" y="220" width="130" height="38" fill="#e6f0ff" stroke="#e2e8f0" />
<text x="305.0" y="243.0" text-anchor="middle" font-size="13" font-weight="500" fill="#0f172a">0</text>
<rect x="370" y="220" width="130" height="38" fill="#e6f0ff" stroke="#e2e8f0" />
<text x="435.0" y="243.0" text-anchor="middle" font-size="13" font-weight="500" fill="#0f172a">0</text>
<text x="102" y="281.0" text-anchor="end" font-size="12" fill="#0f172a">omc</text>
<rect x="110" y="258" width="130" height="38" fill="#1f4ed8" stroke="#e2e8f0" />
<text x="175.0" y="281.0" text-anchor="middle" font-size="13" font-weight="500" fill="#ffffff">17.3</text>
<rect x="240" y="258" width="130" height="38" fill="#e2ecfe" stroke="#e2e8f0" />
<text x="305.0" y="281.0" text-anchor="middle" font-size="13" font-weight="500" fill="#0f172a">0.3</text>
<rect x="370" y="258" width="130" height="38" fill="#b0c4f4" stroke="#e2e8f0" />
<text x="435.0" y="281.0" text-anchor="middle" font-size="13" font-weight="500" fill="#0f172a">4.7</text>
<text x="102" y="319.0" text-anchor="end" font-size="12" fill="#0f172a">pure</text>
<rect x="110" y="296" width="130" height="38" fill="#e6f0ff" stroke="#e2e8f0" />
<text x="175.0" y="319.0" text-anchor="middle" font-size="13" font-weight="500" fill="#0f172a">0</text>
<rect x="240" y="296" width="130" height="38" fill="#e6f0ff" stroke="#e2e8f0" />
<text x="305.0" y="319.0" text-anchor="middle" font-size="13" font-weight="500" fill="#0f172a">0</text>
<rect x="370" y="296" width="130" height="38" fill="#e6f0ff" stroke="#e2e8f0" />
<text x="435.0" y="319.0" text-anchor="middle" font-size="13" font-weight="500" fill="#0f172a">0</text>
<text x="102" y="357.0" text-anchor="end" font-size="12" fill="#0f172a">superpower</text>
<rect x="110" y="334" width="130" height="38" fill="#d2e0fb" stroke="#e2e8f0" />
<text x="175.0" y="357.0" text-anchor="middle" font-size="13" font-weight="500" fill="#0f172a">1.7</text>
<rect x="240" y="334" width="130" height="38" fill="#e6f0ff" stroke="#e2e8f0" />
<text x="305.0" y="357.0" text-anchor="middle" font-size="13" font-weight="500" fill="#0f172a">0</text>
<rect x="370" y="334" width="130" height="38" fill="#e6f0ff" stroke="#e2e8f0" />
<text x="435.0" y="357.0" text-anchor="middle" font-size="13" font-weight="500" fill="#0f172a">0</text>
</svg>
